<mxfile host="app.diagrams.net" agent="Mozilla/5.0 (Windows NT 10.0; Win64; x64) AppleWebKit/537.36 (KHTML, like Gecko) Chrome/131.0.0.0 Safari/537.36 Edg/131.0.0.0" version="26.0.4">
  <diagram id="C5RBs43oDa-KdzZeNtuy" name="Page-1">
    <mxGraphModel dx="1426" dy="781" grid="1" gridSize="10" guides="1" tooltips="1" connect="1" arrows="1" fold="1" page="1" pageScale="1" pageWidth="827" pageHeight="1169" math="0" shadow="0">
      <root>
        <mxCell id="WIyWlLk6GJQsqaUBKTNV-0" />
        <mxCell id="WIyWlLk6GJQsqaUBKTNV-1" parent="WIyWlLk6GJQsqaUBKTNV-0" />
        <mxCell id="6xeoB1cbUCj7fCRLz8L4-13" style="edgeStyle=orthogonalEdgeStyle;rounded=0;orthogonalLoop=1;jettySize=auto;html=1;endArrow=none;endFill=0;startArrow=block;startFill=0;exitX=0.5;exitY=1;exitDx=0;exitDy=0;" edge="1" parent="WIyWlLk6GJQsqaUBKTNV-1" source="6xeoB1cbUCj7fCRLz8L4-0" target="6xeoB1cbUCj7fCRLz8L4-6">
          <mxGeometry relative="1" as="geometry" />
        </mxCell>
        <mxCell id="6xeoB1cbUCj7fCRLz8L4-16" style="edgeStyle=orthogonalEdgeStyle;rounded=0;orthogonalLoop=1;jettySize=auto;html=1;entryX=0.5;entryY=0;entryDx=0;entryDy=0;endArrow=none;endFill=0;startArrow=block;startFill=0;" edge="1" parent="WIyWlLk6GJQsqaUBKTNV-1" source="6xeoB1cbUCj7fCRLz8L4-0" target="6xeoB1cbUCj7fCRLz8L4-14">
          <mxGeometry relative="1" as="geometry" />
        </mxCell>
        <mxCell id="6xeoB1cbUCj7fCRLz8L4-19" style="edgeStyle=orthogonalEdgeStyle;rounded=0;orthogonalLoop=1;jettySize=auto;html=1;entryX=0.5;entryY=0;entryDx=0;entryDy=0;endArrow=none;endFill=0;startArrow=block;startFill=0;" edge="1" parent="WIyWlLk6GJQsqaUBKTNV-1" source="6xeoB1cbUCj7fCRLz8L4-0" target="6xeoB1cbUCj7fCRLz8L4-17">
          <mxGeometry relative="1" as="geometry" />
        </mxCell>
        <mxCell id="6xeoB1cbUCj7fCRLz8L4-0" value="FRunnable" style="swimlane;fontStyle=0;childLayout=stackLayout;horizontal=1;startSize=26;fillColor=none;horizontalStack=0;resizeParent=1;resizeParentMax=0;resizeLast=0;collapsible=1;marginBottom=0;whiteSpace=wrap;html=1;" vertex="1" parent="WIyWlLk6GJQsqaUBKTNV-1">
          <mxGeometry x="250" y="30" width="150" height="110" as="geometry" />
        </mxCell>
        <mxCell id="6xeoB1cbUCj7fCRLz8L4-1" value="+ Init(): bool" style="text;strokeColor=none;fillColor=none;align=left;verticalAlign=top;spacingLeft=4;spacingRight=4;overflow=hidden;rotatable=0;points=[[0,0.5],[1,0.5]];portConstraint=eastwest;whiteSpace=wrap;html=1;" vertex="1" parent="6xeoB1cbUCj7fCRLz8L4-0">
          <mxGeometry y="26" width="150" height="26" as="geometry" />
        </mxCell>
        <mxCell id="6xeoB1cbUCj7fCRLz8L4-2" value="+ Run(): void" style="text;strokeColor=none;fillColor=none;align=left;verticalAlign=top;spacingLeft=4;spacingRight=4;overflow=hidden;rotatable=0;points=[[0,0.5],[1,0.5]];portConstraint=eastwest;whiteSpace=wrap;html=1;" vertex="1" parent="6xeoB1cbUCj7fCRLz8L4-0">
          <mxGeometry y="52" width="150" height="26" as="geometry" />
        </mxCell>
        <mxCell id="6xeoB1cbUCj7fCRLz8L4-3" value="+ &lt;span style=&quot;color: rgb(163, 21, 21); font-family: &amp;quot;Courier New&amp;quot;, sans-serif; white-space-collapse: preserve; background-color: rgb(245, 245, 245);&quot;&gt;Stop()&lt;/span&gt;: void&amp;nbsp;" style="text;strokeColor=none;fillColor=none;align=left;verticalAlign=top;spacingLeft=4;spacingRight=4;overflow=hidden;rotatable=0;points=[[0,0.5],[1,0.5]];portConstraint=eastwest;whiteSpace=wrap;html=1;movable=0;resizable=0;deletable=0;editable=0;locked=1;connectable=0;" vertex="1" parent="6xeoB1cbUCj7fCRLz8L4-0">
          <mxGeometry y="78" width="150" height="32" as="geometry" />
        </mxCell>
        <mxCell id="6xeoB1cbUCj7fCRLz8L4-6" value="FRenderingThread" style="swimlane;fontStyle=0;childLayout=stackLayout;horizontal=1;startSize=26;fillColor=none;horizontalStack=0;resizeParent=1;resizeParentMax=0;resizeLast=0;collapsible=1;marginBottom=0;whiteSpace=wrap;html=1;" vertex="1" parent="WIyWlLk6GJQsqaUBKTNV-1">
          <mxGeometry x="60" y="270" width="130" height="52" as="geometry" />
        </mxCell>
        <mxCell id="6xeoB1cbUCj7fCRLz8L4-14" value="FTaskThreadBase" style="swimlane;fontStyle=0;childLayout=stackLayout;horizontal=1;startSize=26;fillColor=none;horizontalStack=0;resizeParent=1;resizeParentMax=0;resizeLast=0;collapsible=1;marginBottom=0;whiteSpace=wrap;html=1;" vertex="1" parent="WIyWlLk6GJQsqaUBKTNV-1">
          <mxGeometry x="370" y="270" width="160" height="52" as="geometry" />
        </mxCell>
        <mxCell id="6xeoB1cbUCj7fCRLz8L4-17" value="FRHIThread" style="swimlane;fontStyle=0;childLayout=stackLayout;horizontal=1;startSize=26;fillColor=none;horizontalStack=0;resizeParent=1;resizeParentMax=0;resizeLast=0;collapsible=1;marginBottom=0;whiteSpace=wrap;html=1;" vertex="1" parent="WIyWlLk6GJQsqaUBKTNV-1">
          <mxGeometry x="210" y="270" width="140" height="52" as="geometry" />
        </mxCell>
        <mxCell id="6xeoB1cbUCj7fCRLz8L4-23" style="edgeStyle=orthogonalEdgeStyle;rounded=0;orthogonalLoop=1;jettySize=auto;html=1;exitX=0.5;exitY=0;exitDx=0;exitDy=0;entryX=0.5;entryY=1;entryDx=0;entryDy=0;endArrow=block;endFill=0;startArrow=none;startFill=0;" edge="1" parent="WIyWlLk6GJQsqaUBKTNV-1" source="6xeoB1cbUCj7fCRLz8L4-20" target="6xeoB1cbUCj7fCRLz8L4-0">
          <mxGeometry relative="1" as="geometry" />
        </mxCell>
        <mxCell id="6xeoB1cbUCj7fCRLz8L4-59" style="edgeStyle=orthogonalEdgeStyle;rounded=0;orthogonalLoop=1;jettySize=auto;html=1;exitX=0.5;exitY=1;exitDx=0;exitDy=0;entryX=0;entryY=0.5;entryDx=0;entryDy=0;endArrow=diamondThin;endFill=1;" edge="1" parent="WIyWlLk6GJQsqaUBKTNV-1" source="6xeoB1cbUCj7fCRLz8L4-20" target="6xeoB1cbUCj7fCRLz8L4-56">
          <mxGeometry relative="1" as="geometry" />
        </mxCell>
        <mxCell id="6xeoB1cbUCj7fCRLz8L4-20" value="FQueuedThread" style="swimlane;fontStyle=0;childLayout=stackLayout;horizontal=1;startSize=26;fillColor=none;horizontalStack=0;resizeParent=1;resizeParentMax=0;resizeLast=0;collapsible=1;marginBottom=0;whiteSpace=wrap;html=1;" vertex="1" parent="WIyWlLk6GJQsqaUBKTNV-1">
          <mxGeometry x="550" y="270" width="160" height="52" as="geometry" />
        </mxCell>
        <mxCell id="6xeoB1cbUCj7fCRLz8L4-24" value="FRunnableThread" style="swimlane;fontStyle=0;childLayout=stackLayout;horizontal=1;startSize=26;fillColor=none;horizontalStack=0;resizeParent=1;resizeParentMax=0;resizeLast=0;collapsible=1;marginBottom=0;whiteSpace=wrap;html=1;" vertex="1" parent="WIyWlLk6GJQsqaUBKTNV-1">
          <mxGeometry x="690" y="43" width="210" height="104" as="geometry">
            <mxRectangle x="880" y="56" width="140" height="30" as="alternateBounds" />
          </mxGeometry>
        </mxCell>
        <mxCell id="6xeoB1cbUCj7fCRLz8L4-25" value="&lt;font&gt;+&amp;nbsp;&lt;span style=&quot;font-family: &amp;quot;Courier New&amp;quot;, sans-serif; white-space-collapse: preserve; background-color: rgb(245, 245, 245); color: rgb(163, 21, 21);&quot;&gt;Create&lt;/span&gt;(): FRunnableTHread*&lt;/font&gt;" style="text;strokeColor=none;fillColor=none;align=left;verticalAlign=top;spacingLeft=4;spacingRight=4;overflow=hidden;rotatable=0;points=[[0,0.5],[1,0.5]];portConstraint=eastwest;whiteSpace=wrap;html=1;" vertex="1" parent="6xeoB1cbUCj7fCRLz8L4-24">
          <mxGeometry y="26" width="210" height="26" as="geometry" />
        </mxCell>
        <mxCell id="6xeoB1cbUCj7fCRLz8L4-26" value="&lt;font&gt;+&amp;nbsp;&lt;span style=&quot;margin: 0px; padding: 0px; font-family: &amp;quot;Courier New&amp;quot;, sans-serif; white-space-collapse: preserve;&quot; class=&quot;hljs-title function_&quot;&gt;Suspend(): void&lt;/span&gt;&lt;/font&gt;" style="text;strokeColor=none;fillColor=none;align=left;verticalAlign=top;spacingLeft=4;spacingRight=4;overflow=hidden;rotatable=0;points=[[0,0.5],[1,0.5]];portConstraint=eastwest;whiteSpace=wrap;html=1;" vertex="1" parent="6xeoB1cbUCj7fCRLz8L4-24">
          <mxGeometry y="52" width="210" height="26" as="geometry" />
        </mxCell>
        <mxCell id="6xeoB1cbUCj7fCRLz8L4-30" value="&lt;font&gt;+ &lt;font face=&quot;Courier New, sans-serif&quot;&gt;&lt;span style=&quot;white-space-collapse: preserve; background-color: rgb(245, 245, 245);&quot;&gt;Kill&lt;/span&gt;&lt;/font&gt;(): void&lt;/font&gt;" style="text;align=left;verticalAlign=top;spacingLeft=4;spacingRight=4;overflow=hidden;rotatable=0;points=[[0,0.5],[1,0.5]];portConstraint=eastwest;whiteSpace=wrap;html=1;" vertex="1" parent="6xeoB1cbUCj7fCRLz8L4-24">
          <mxGeometry y="78" width="210" height="26" as="geometry" />
        </mxCell>
        <mxCell id="6xeoB1cbUCj7fCRLz8L4-28" style="edgeStyle=orthogonalEdgeStyle;rounded=0;orthogonalLoop=1;jettySize=auto;html=1;exitX=1;exitY=0.5;exitDx=0;exitDy=0;entryX=0;entryY=0.5;entryDx=0;entryDy=0;endArrow=none;endFill=0;" edge="1" parent="WIyWlLk6GJQsqaUBKTNV-1" source="6xeoB1cbUCj7fCRLz8L4-2" target="6xeoB1cbUCj7fCRLz8L4-24">
          <mxGeometry relative="1" as="geometry" />
        </mxCell>
        <mxCell id="6xeoB1cbUCj7fCRLz8L4-31" value="FThreadManager" style="swimlane;fontStyle=0;childLayout=stackLayout;horizontal=1;startSize=26;fillColor=none;horizontalStack=0;resizeParent=1;resizeParentMax=0;resizeLast=0;collapsible=1;marginBottom=0;whiteSpace=wrap;html=1;" vertex="1" parent="WIyWlLk6GJQsqaUBKTNV-1">
          <mxGeometry x="1050" y="43" width="450" height="104" as="geometry">
            <mxRectangle x="880" y="56" width="140" height="30" as="alternateBounds" />
          </mxGeometry>
        </mxCell>
        <mxCell id="6xeoB1cbUCj7fCRLz8L4-32" value="&lt;font&gt;+&amp;nbsp;&lt;span style=&quot;color: rgb(68, 68, 68); font-family: &amp;quot;Courier New&amp;quot;, sans-serif; white-space-collapse: preserve; background-color: rgb(245, 245, 245);&quot;&gt;Threads&lt;/span&gt;:&amp;nbsp;&lt;/font&gt;&lt;span style=&quot;color: rgb(68, 68, 68); font-family: &amp;quot;Courier New&amp;quot;, sans-serif; white-space-collapse: preserve; background-color: rgb(245, 245, 245);&quot;&gt;TMap&amp;lt;uint32, &lt;/span&gt;&lt;span style=&quot;margin: 0px; padding: 0px; color: rgb(68, 68, 68); font-family: &amp;quot;Courier New&amp;quot;, sans-serif; white-space-collapse: preserve;&quot; class=&quot;hljs-class&quot;&gt;&lt;span style=&quot;margin: 0px; padding: 0px; color: rgb(0, 0, 255);&quot; class=&quot;hljs-keyword&quot;&gt;class&lt;/span&gt; &lt;span style=&quot;margin: 0px; padding: 0px; color: rgb(163, 21, 21);&quot; class=&quot;hljs-title&quot;&gt;FRunnableThread&lt;/span&gt;*&amp;gt;&lt;/span&gt;" style="text;strokeColor=none;fillColor=none;align=left;verticalAlign=top;spacingLeft=4;spacingRight=4;overflow=hidden;rotatable=0;points=[[0,0.5],[1,0.5]];portConstraint=eastwest;whiteSpace=wrap;html=1;" vertex="1" parent="6xeoB1cbUCj7fCRLz8L4-31">
          <mxGeometry y="26" width="450" height="26" as="geometry" />
        </mxCell>
        <mxCell id="6xeoB1cbUCj7fCRLz8L4-33" value="&lt;font&gt;+&amp;nbsp;&lt;span style=&quot;margin: 0px; padding: 0px; font-family: &amp;quot;Courier New&amp;quot;, sans-serif; white-space-collapse: preserve;&quot; class=&quot;hljs-title function_&quot;&gt;&lt;span style=&quot;color: rgb(163, 21, 21); background-color: rgb(245, 245, 245);&quot;&gt;AddThread&lt;/span&gt;(): void&lt;/span&gt;&lt;/font&gt;" style="text;strokeColor=none;fillColor=none;align=left;verticalAlign=top;spacingLeft=4;spacingRight=4;overflow=hidden;rotatable=0;points=[[0,0.5],[1,0.5]];portConstraint=eastwest;whiteSpace=wrap;html=1;" vertex="1" parent="6xeoB1cbUCj7fCRLz8L4-31">
          <mxGeometry y="52" width="450" height="26" as="geometry" />
        </mxCell>
        <mxCell id="6xeoB1cbUCj7fCRLz8L4-34" value="&lt;font&gt;+&amp;nbsp;&lt;span style=&quot;color: rgb(163, 21, 21); font-family: &amp;quot;Courier New&amp;quot;, sans-serif; white-space-collapse: preserve; background-color: rgb(245, 245, 245);&quot;&gt;RemoveThread&lt;/span&gt;(): void&lt;/font&gt;" style="text;align=left;verticalAlign=top;spacingLeft=4;spacingRight=4;overflow=hidden;rotatable=0;points=[[0,0.5],[1,0.5]];portConstraint=eastwest;whiteSpace=wrap;html=1;" vertex="1" parent="6xeoB1cbUCj7fCRLz8L4-31">
          <mxGeometry y="78" width="450" height="26" as="geometry" />
        </mxCell>
        <mxCell id="6xeoB1cbUCj7fCRLz8L4-35" style="edgeStyle=orthogonalEdgeStyle;rounded=0;orthogonalLoop=1;jettySize=auto;html=1;exitX=1;exitY=0.5;exitDx=0;exitDy=0;entryX=0;entryY=0.5;entryDx=0;entryDy=0;endArrow=none;endFill=0;" edge="1" parent="WIyWlLk6GJQsqaUBKTNV-1" source="6xeoB1cbUCj7fCRLz8L4-26" target="6xeoB1cbUCj7fCRLz8L4-33">
          <mxGeometry relative="1" as="geometry" />
        </mxCell>
        <mxCell id="6xeoB1cbUCj7fCRLz8L4-40" value="&lt;span style=&quot;font-family: &amp;quot;Courier New&amp;quot;, sans-serif; text-align: start; white-space-collapse: preserve;&quot;&gt;&lt;font style=&quot;color: rgb(0, 0, 0);&quot;&gt;IQueuedWork&lt;/font&gt;&lt;/span&gt;" style="swimlane;fontStyle=0;childLayout=stackLayout;horizontal=1;startSize=26;fillColor=none;horizontalStack=0;resizeParent=1;resizeParentMax=0;resizeLast=0;collapsible=1;marginBottom=0;whiteSpace=wrap;html=1;" vertex="1" parent="WIyWlLk6GJQsqaUBKTNV-1">
          <mxGeometry x="190" y="430" width="260" height="78" as="geometry" />
        </mxCell>
        <mxCell id="6xeoB1cbUCj7fCRLz8L4-41" value="+&amp;nbsp;&lt;span style=&quot;margin: 0px; padding: 0px; font-family: &amp;quot;Courier New&amp;quot;, sans-serif; white-space-collapse: preserve;&quot; class=&quot;hljs-title function_&quot;&gt;&lt;font style=&quot;color: rgb(0, 0, 0);&quot;&gt;DoThreadedWork&lt;/font&gt;&lt;/span&gt;&lt;span style=&quot;margin: 0px; padding: 0px; color: rgb(68, 68, 68); font-family: &amp;quot;Courier New&amp;quot;, sans-serif; white-space-collapse: preserve;&quot; class=&quot;hljs-params&quot;&gt;()&lt;/span&gt;: void" style="text;strokeColor=none;fillColor=none;align=left;verticalAlign=top;spacingLeft=4;spacingRight=4;overflow=hidden;rotatable=0;points=[[0,0.5],[1,0.5]];portConstraint=eastwest;whiteSpace=wrap;html=1;" vertex="1" parent="6xeoB1cbUCj7fCRLz8L4-40">
          <mxGeometry y="26" width="260" height="26" as="geometry" />
        </mxCell>
        <mxCell id="6xeoB1cbUCj7fCRLz8L4-42" value="+&amp;nbsp;&lt;span style=&quot;margin: 0px; padding: 0px; font-family: &amp;quot;Courier New&amp;quot;, sans-serif; white-space-collapse: preserve;&quot; class=&quot;hljs-title function_&quot;&gt;&lt;font style=&quot;color: rgb(51, 0, 0);&quot;&gt;Abandon&lt;/font&gt;&lt;/span&gt;&lt;span style=&quot;margin: 0px; padding: 0px; color: rgb(68, 68, 68); font-family: &amp;quot;Courier New&amp;quot;, sans-serif; white-space-collapse: preserve;&quot; class=&quot;hljs-params&quot;&gt;()&lt;/span&gt;: void" style="text;strokeColor=none;fillColor=none;align=left;verticalAlign=top;spacingLeft=4;spacingRight=4;overflow=hidden;rotatable=1;points=[[0,0.5],[1,0.5]];portConstraint=eastwest;whiteSpace=wrap;html=1;movable=1;resizable=1;deletable=1;editable=1;locked=0;connectable=1;" vertex="1" parent="6xeoB1cbUCj7fCRLz8L4-40">
          <mxGeometry y="52" width="260" height="26" as="geometry" />
        </mxCell>
        <mxCell id="6xeoB1cbUCj7fCRLz8L4-48" style="edgeStyle=orthogonalEdgeStyle;rounded=0;orthogonalLoop=1;jettySize=auto;html=1;exitX=0.5;exitY=0;exitDx=0;exitDy=0;entryX=0.5;entryY=1;entryDx=0;entryDy=0;endArrow=block;endFill=0;" edge="1" parent="WIyWlLk6GJQsqaUBKTNV-1" source="6xeoB1cbUCj7fCRLz8L4-44" target="6xeoB1cbUCj7fCRLz8L4-40">
          <mxGeometry relative="1" as="geometry" />
        </mxCell>
        <mxCell id="6xeoB1cbUCj7fCRLz8L4-44" value="&lt;span style=&quot;font-family: &amp;quot;Courier New&amp;quot;, sans-serif; text-align: start; white-space-collapse: preserve;&quot;&gt;&lt;font style=&quot;color: rgb(0, 0, 0);&quot;&gt;IAsyncQueuedWork&lt;/font&gt;&lt;/span&gt;" style="swimlane;fontStyle=0;childLayout=stackLayout;horizontal=1;startSize=26;fillColor=none;horizontalStack=0;resizeParent=1;resizeParentMax=0;resizeLast=0;collapsible=1;marginBottom=0;whiteSpace=wrap;html=1;" vertex="1" parent="WIyWlLk6GJQsqaUBKTNV-1">
          <mxGeometry x="160" y="600" width="320" height="78" as="geometry" />
        </mxCell>
        <mxCell id="6xeoB1cbUCj7fCRLz8L4-45" value="&lt;span&gt;+&amp;nbsp;&lt;span style=&quot;color: rgb(68, 68, 68); font-family: &amp;quot;Courier New&amp;quot;, sans-serif; white-space-collapse: preserve;&quot;&gt;Function&lt;/span&gt;:&amp;nbsp;&lt;span style=&quot;color: rgb(68, 68, 68); font-family: &amp;quot;Courier New&amp;quot;, sans-serif; white-space-collapse: preserve;&quot;&gt;TUniqueFunction&amp;lt;ResultType()&amp;gt;&lt;/span&gt;&lt;/span&gt;" style="text;strokeColor=none;fillColor=none;align=left;verticalAlign=top;spacingLeft=4;spacingRight=4;overflow=hidden;rotatable=0;points=[[0,0.5],[1,0.5]];portConstraint=eastwest;whiteSpace=wrap;html=1;" vertex="1" parent="6xeoB1cbUCj7fCRLz8L4-44">
          <mxGeometry y="26" width="320" height="26" as="geometry" />
        </mxCell>
        <mxCell id="6xeoB1cbUCj7fCRLz8L4-46" value="+&amp;nbsp;&lt;span style=&quot;color: rgb(68, 68, 68); font-family: &amp;quot;Courier New&amp;quot;, sans-serif; white-space-collapse: preserve; background-color: rgb(245, 245, 245);&quot;&gt;Promise: &lt;/span&gt;&lt;span style=&quot;color: rgb(68, 68, 68); font-family: &amp;quot;Courier New&amp;quot;, sans-serif; white-space-collapse: preserve; background-color: rgb(245, 245, 245);&quot;&gt;TPromise&amp;lt;ResultType&amp;gt; &lt;/span&gt;" style="text;strokeColor=none;fillColor=none;align=left;verticalAlign=top;spacingLeft=4;spacingRight=4;overflow=hidden;rotatable=0;points=[[0,0.5],[1,0.5]];portConstraint=eastwest;whiteSpace=wrap;html=1;" vertex="1" parent="6xeoB1cbUCj7fCRLz8L4-44">
          <mxGeometry y="52" width="320" height="26" as="geometry" />
        </mxCell>
        <mxCell id="6xeoB1cbUCj7fCRLz8L4-50" value="&lt;span style=&quot;font-family: &amp;quot;Courier New&amp;quot;, sans-serif; text-align: start; white-space-collapse: preserve;&quot;&gt;&lt;font style=&quot;color: rgb(0, 0, 0);&quot;&gt;FQueuedThreadPool&lt;/font&gt;&lt;/span&gt;" style="swimlane;fontStyle=0;childLayout=stackLayout;horizontal=1;startSize=26;fillColor=none;horizontalStack=0;resizeParent=1;resizeParentMax=0;resizeLast=0;collapsible=1;marginBottom=0;whiteSpace=wrap;html=1;" vertex="1" parent="WIyWlLk6GJQsqaUBKTNV-1">
          <mxGeometry x="800" y="270" width="260" height="104" as="geometry" />
        </mxCell>
        <mxCell id="6xeoB1cbUCj7fCRLz8L4-51" value="&lt;font style=&quot;color: rgb(0, 0, 0);&quot;&gt;+&amp;nbsp;&lt;span style=&quot;margin: 0px; padding: 0px; font-family: &amp;quot;Courier New&amp;quot;, sans-serif; white-space-collapse: preserve; color: rgb(68, 68, 68);&quot; class=&quot;hljs-params&quot;&gt;&lt;span style=&quot;background-color: rgb(245, 245, 245);&quot;&gt;Create&lt;/span&gt;()&lt;/span&gt;: void&lt;/font&gt;" style="text;strokeColor=none;fillColor=none;align=left;verticalAlign=top;spacingLeft=4;spacingRight=4;overflow=hidden;rotatable=0;points=[[0,0.5],[1,0.5]];portConstraint=eastwest;whiteSpace=wrap;html=1;" vertex="1" parent="6xeoB1cbUCj7fCRLz8L4-50">
          <mxGeometry y="26" width="260" height="26" as="geometry" />
        </mxCell>
        <mxCell id="6xeoB1cbUCj7fCRLz8L4-52" value="&lt;font style=&quot;color: rgb(0, 0, 0);&quot;&gt;+&amp;nbsp;&lt;span style=&quot;margin: 0px; padding: 0px; font-family: &amp;quot;Courier New&amp;quot;, sans-serif; white-space-collapse: preserve;&quot; class=&quot;hljs-params&quot;&gt;&lt;span style=&quot;background-color: rgb(245, 245, 245);&quot;&gt;Destroy&lt;/span&gt;()&lt;/span&gt;: void&lt;/font&gt;" style="text;strokeColor=none;fillColor=none;align=left;verticalAlign=top;spacingLeft=4;spacingRight=4;overflow=hidden;rotatable=1;points=[[0,0.5],[1,0.5]];portConstraint=eastwest;whiteSpace=wrap;html=1;movable=1;resizable=1;deletable=1;editable=1;locked=0;connectable=1;" vertex="1" parent="6xeoB1cbUCj7fCRLz8L4-50">
          <mxGeometry y="52" width="260" height="26" as="geometry" />
        </mxCell>
        <mxCell id="6xeoB1cbUCj7fCRLz8L4-53" value="&lt;font style=&quot;color: rgb(0, 0, 0);&quot;&gt;+&amp;nbsp;&lt;span style=&quot;margin: 0px; padding: 0px; font-family: &amp;quot;Courier New&amp;quot;, sans-serif; white-space-collapse: preserve; color: rgb(68, 68, 68);&quot; class=&quot;hljs-params&quot;&gt;&lt;span style=&quot;background-color: rgb(245, 245, 245);&quot;&gt;AddQueuedWork&lt;/span&gt;()&lt;/span&gt;: void&lt;/font&gt;" style="text;strokeColor=none;fillColor=none;align=left;verticalAlign=top;spacingLeft=4;spacingRight=4;overflow=hidden;rotatable=1;points=[[0,0.5],[1,0.5]];portConstraint=eastwest;whiteSpace=wrap;html=1;movable=1;resizable=1;deletable=1;editable=1;locked=0;connectable=1;" vertex="1" parent="6xeoB1cbUCj7fCRLz8L4-50">
          <mxGeometry y="78" width="260" height="26" as="geometry" />
        </mxCell>
        <mxCell id="6xeoB1cbUCj7fCRLz8L4-58" style="edgeStyle=orthogonalEdgeStyle;rounded=0;orthogonalLoop=1;jettySize=auto;html=1;entryX=0.5;entryY=1;entryDx=0;entryDy=0;endArrow=block;endFill=0;" edge="1" parent="WIyWlLk6GJQsqaUBKTNV-1" source="6xeoB1cbUCj7fCRLz8L4-54" target="6xeoB1cbUCj7fCRLz8L4-50">
          <mxGeometry relative="1" as="geometry">
            <mxPoint x="900" y="393" as="targetPoint" />
          </mxGeometry>
        </mxCell>
        <mxCell id="6xeoB1cbUCj7fCRLz8L4-54" value="&lt;span style=&quot;font-family: &amp;quot;Courier New&amp;quot;, sans-serif; text-align: start; white-space-collapse: preserve;&quot;&gt;&lt;font style=&quot;color: rgb(0, 0, 0);&quot;&gt;FQueuedThreadPoolBase&lt;/font&gt;&lt;/span&gt;" style="swimlane;fontStyle=0;childLayout=stackLayout;horizontal=1;startSize=26;fillColor=none;horizontalStack=0;resizeParent=1;resizeParentMax=0;resizeLast=0;collapsible=1;marginBottom=0;whiteSpace=wrap;html=1;" vertex="1" parent="WIyWlLk6GJQsqaUBKTNV-1">
          <mxGeometry x="780" y="453" width="300" height="104" as="geometry" />
        </mxCell>
        <mxCell id="6xeoB1cbUCj7fCRLz8L4-55" value="&lt;font style=&quot;color: rgb(0, 0, 0);&quot;&gt;+&amp;nbsp;&lt;/font&gt;&lt;span style=&quot;color: rgb(68, 68, 68); font-family: &amp;quot;Courier New&amp;quot;, sans-serif; white-space-collapse: preserve; background-color: rgb(245, 245, 245);&quot;&gt;QueuedWork: &lt;/span&gt;&lt;span style=&quot;color: rgb(68, 68, 68); font-family: &amp;quot;Courier New&amp;quot;, sans-serif; white-space-collapse: preserve; background-color: rgb(245, 245, 245);&quot;&gt;TArray&amp;lt;IQueuedWork*&amp;gt;&lt;/span&gt;" style="text;strokeColor=none;fillColor=none;align=left;verticalAlign=top;spacingLeft=4;spacingRight=4;overflow=hidden;rotatable=0;points=[[0,0.5],[1,0.5]];portConstraint=eastwest;whiteSpace=wrap;html=1;" vertex="1" parent="6xeoB1cbUCj7fCRLz8L4-54">
          <mxGeometry y="26" width="300" height="26" as="geometry" />
        </mxCell>
        <mxCell id="6xeoB1cbUCj7fCRLz8L4-56" value="&lt;font style=&quot;color: rgb(0, 0, 0);&quot;&gt;+&amp;nbsp;&lt;span style=&quot;color: rgb(68, 68, 68); font-family: &amp;quot;Courier New&amp;quot;, sans-serif; white-space-collapse: preserve; background-color: rgb(245, 245, 245);&quot;&gt;QueuedThreads&lt;/span&gt;:&amp;nbsp;&lt;/font&gt;&lt;span style=&quot;color: rgb(68, 68, 68); font-family: &amp;quot;Courier New&amp;quot;, sans-serif; white-space-collapse: preserve; background-color: rgb(245, 245, 245);&quot;&gt;TArray&amp;lt;FQueuedThread*&amp;gt;&lt;/span&gt;" style="text;strokeColor=none;fillColor=none;align=left;verticalAlign=top;spacingLeft=4;spacingRight=4;overflow=hidden;rotatable=1;points=[[0,0.5],[1,0.5]];portConstraint=eastwest;whiteSpace=wrap;html=1;movable=1;resizable=1;deletable=1;editable=1;locked=0;connectable=1;" vertex="1" parent="6xeoB1cbUCj7fCRLz8L4-54">
          <mxGeometry y="52" width="300" height="26" as="geometry" />
        </mxCell>
        <mxCell id="6xeoB1cbUCj7fCRLz8L4-57" value="&lt;font style=&quot;color: rgb(0, 0, 0);&quot;&gt;+&amp;nbsp;&lt;span style=&quot;color: rgb(68, 68, 68); font-family: &amp;quot;Courier New&amp;quot;, sans-serif; white-space-collapse: preserve; background-color: rgb(245, 245, 245);&quot;&gt;AllThreads&lt;/span&gt;:&amp;nbsp;&lt;/font&gt;&lt;span style=&quot;color: rgb(68, 68, 68); font-family: &amp;quot;Courier New&amp;quot;, sans-serif; white-space-collapse: preserve; background-color: rgb(245, 245, 245);&quot;&gt;TArray&amp;lt;FQueuedThread*&amp;gt;&lt;/span&gt;" style="text;strokeColor=none;fillColor=none;align=left;verticalAlign=top;spacingLeft=4;spacingRight=4;overflow=hidden;rotatable=1;points=[[0,0.5],[1,0.5]];portConstraint=eastwest;whiteSpace=wrap;html=1;movable=1;resizable=1;deletable=1;editable=1;locked=0;connectable=1;" vertex="1" parent="6xeoB1cbUCj7fCRLz8L4-54">
          <mxGeometry y="78" width="300" height="26" as="geometry" />
        </mxCell>
        <mxCell id="6xeoB1cbUCj7fCRLz8L4-60" style="edgeStyle=orthogonalEdgeStyle;rounded=0;orthogonalLoop=1;jettySize=auto;html=1;exitX=1;exitY=0.5;exitDx=0;exitDy=0;entryX=0;entryY=0.5;entryDx=0;entryDy=0;endArrow=diamondThin;endFill=1;" edge="1" parent="WIyWlLk6GJQsqaUBKTNV-1" source="6xeoB1cbUCj7fCRLz8L4-45" target="6xeoB1cbUCj7fCRLz8L4-56">
          <mxGeometry relative="1" as="geometry" />
        </mxCell>
      </root>
    </mxGraphModel>
  </diagram>
</mxfile>
